<svg width="28" height="28" viewBox="0 0 28 28" fill="none" xmlns="http://www.w3.org/2000/svg">
<path d="M14.7117 2.57837C14.2917 2.25171 13.7084 2.25171 13.2884 2.57837C11.0717 4.27004 4.52666 9.78837 4.56166 16.2167C4.56166 21.42 8.79671 25.6667 14.0117 25.6667C19.2267 25.6667 23.4617 21.4317 23.4617 16.2284C23.4733 9.89337 16.9167 4.28171 14.7117 2.57837Z" fill="#0BB57F"/>
<path d="M23.4384 16.5667C23.415 17.2784 23.31 17.9784 23.1233 18.655L14.875 22.6684V25.6317C14.5833 25.655 14.2917 25.6667 14 25.6667C13.7083 25.6667 13.4167 25.655 13.125 25.6317V2.69504C13.1833 2.64837 13.23 2.61337 13.2767 2.57837C13.7083 2.25171 14.2916 2.25171 14.7116 2.57837C14.7583 2.61337 14.8167 2.66004 14.875 2.70671V9.05337L19.285 6.90671C19.67 7.35004 20.0316 7.80504 20.3933 8.28337C20.3466 8.33004 20.3 8.36504 20.2416 8.38837L14.875 11.0017V14.8867L22.2133 11.3167C22.225 11.3167 22.225 11.305 22.2367 11.305C22.4933 11.83 22.715 12.3667 22.89 12.9267L14.875 16.835V20.72L22.5983 16.9634L23.4384 16.5667Z" fill="white"/>
</svg>
